<svg xmlns="http://www.w3.org/2000/svg" viewBox="0 0 1200 760" role="img" aria-labelledby="title desc">
  <title id="title">Ages 3 to 5 soccer program illustration</title>
  <desc id="desc">A bright preschool soccer scene with a young player, cones, and a soccer ball.</desc>
  <defs>
    <linearGradient id="sky" x1="0" x2="1" y1="0" y2="1"><stop stop-color="#a7f3ff"/><stop offset="1" stop-color="#fff4c7"/></linearGradient>
    <linearGradient id="grass" x1="0" x2="1"><stop stop-color="#8bdc4b"/><stop offset="1" stop-color="#32a852"/></linearGradient>
    <filter id="shadow" x="-20%" y="-20%" width="140%" height="140%"><feDropShadow dx="0" dy="18" stdDeviation="18" flood-color="#07233f" flood-opacity=".24"/></filter>
  </defs>
  <rect width="1200" height="760" fill="url(#sky)"/>
  <circle cx="1000" cy="118" r="82" fill="#ffd35b" opacity=".95"/>
  <path d="M0 524c146-44 288-52 426-24 185 38 355 14 507-32 102-31 191-25 267 17v275H0z" fill="url(#grass)"/>
  <path d="M75 612c198-62 401-66 608-12 154 40 303 31 444-27" fill="none" stroke="#ffffff" stroke-width="10" stroke-linecap="round" opacity=".55"/>
  <g filter="url(#shadow)">
    <circle cx="470" cy="245" r="66" fill="#7a4b32"/>
    <path d="M398 318c48-54 129-56 179 0l-14 158H413z" fill="#ff6a00"/>
    <path d="M420 476h55l-12 116h-66zM512 476h55l39 116h-68z" fill="#0d2b4f"/>
    <path d="M404 343l-96 62" stroke="#7a4b32" stroke-width="34" stroke-linecap="round"/>
    <path d="M570 345l90 66" stroke="#7a4b32" stroke-width="34" stroke-linecap="round"/>
    <circle cx="316" cy="418" r="22" fill="#7a4b32"/>
    <circle cx="672" cy="424" r="22" fill="#7a4b32"/>
  </g>
  <g transform="translate(698 520)" filter="url(#shadow)">
    <circle r="74" fill="#fff"/>
    <path d="M0-58 34-18 20 45h-40l-14-63z" fill="#0d2b4f"/>
    <path d="M-58-4h44M14-4h44M-33 47 0 18l33 29" fill="none" stroke="#0d2b4f" stroke-width="10" stroke-linecap="round"/>
  </g>
  <g fill="#ffb703">
    <path d="M164 566h58l31 104H133z"/>
    <path d="M250 584h50l26 86H226z" opacity=".85"/>
  </g>
  <text x="82" y="112" fill="#08213f" font-family="Arial Black, Arial, sans-serif" font-size="56">U6</text>
  <text x="82" y="168" fill="#0d2b4f" font-family="Arial, sans-serif" font-size="34" font-weight="800">Ages 3-5</text>
</svg>
