<svg xmlns="http://www.w3.org/2000/svg" viewBox="0 0 1200 760" role="img" aria-labelledby="title desc">
  <title id="title">Ages 12 to 13 soccer program illustration</title>
  <desc id="desc">A focused youth soccer player striking a ball with a tactical field backdrop.</desc>
  <defs>
    <linearGradient id="bg" x1="0" x2="1" y1="0" y2="1"><stop stop-color="#0f172a"/><stop offset="1" stop-color="#0ea5e9"/></linearGradient>
    <linearGradient id="field" x1="0" x2="1"><stop stop-color="#53e06e"/><stop offset="1" stop-color="#156b3a"/></linearGradient>
    <filter id="shadow" x="-20%" y="-20%" width="140%" height="140%"><feDropShadow dx="0" dy="20" stdDeviation="18" flood-color="#020617" flood-opacity=".36"/></filter>
  </defs>
  <rect width="1200" height="760" fill="url(#bg)"/>
  <path d="M0 492c206-60 415-52 628 24 227 81 417 56 572-75v319H0z" fill="url(#field)"/>
  <path d="M140 550h920M600 495v210M420 600c0-56 81-102 180-102s180 46 180 102" fill="none" stroke="#fff" stroke-width="8" opacity=".38"/>
  <g filter="url(#shadow)">
    <circle cx="548" cy="190" r="58" fill="#8c5738"/>
    <path d="M482 260c52-42 119-42 171 0l-27 144H509z" fill="#ff6a00"/>
    <path d="M506 402h49l-72 133h-66zM596 402h50l90 121h-70z" fill="#061a33"/>
    <path d="M484 288 382 358" stroke="#8c5738" stroke-width="29" stroke-linecap="round"/>
    <path d="M653 288 760 335" stroke="#8c5738" stroke-width="29" stroke-linecap="round"/>
  </g>
  <g transform="translate(790 520)" filter="url(#shadow)">
    <circle r="68" fill="#fff"/>
    <path d="M0-52 30-15 18 40h-36l-12-55z" fill="#0f172a"/>
    <path d="M-52-2h39M13-2h39M-30 42 0 16l30 26" fill="none" stroke="#0f172a" stroke-width="9" stroke-linecap="round"/>
  </g>
  <path d="M820 250c88 38 150 101 188 190" fill="none" stroke="#b7ff3c" stroke-width="12" stroke-linecap="round" stroke-dasharray="2 26"/>
  <text x="82" y="116" fill="#fff" font-family="Arial Black, Arial, sans-serif" font-size="58">U13/U14</text>
  <text x="82" y="174" fill="#b7ff3c" font-family="Arial, sans-serif" font-size="34" font-weight="800">Ages 12-13</text>
</svg>
