<svg xmlns="http://www.w3.org/2000/svg" viewBox="0 0 1200 760" role="img" aria-labelledby="title desc">
  <title id="title">Ages 9 to 11 soccer program illustration</title>
  <desc id="desc">Two youth soccer players training with movement lines and a ball on a field.</desc>
  <defs>
    <linearGradient id="bg" x1="0" x2="1" y1="0" y2="1"><stop stop-color="#061a33"/><stop offset="1" stop-color="#1d4ed8"/></linearGradient>
    <linearGradient id="grass" x1="0" x2="1"><stop stop-color="#42d96b"/><stop offset="1" stop-color="#167a42"/></linearGradient>
    <filter id="shadow" x="-20%" y="-20%" width="140%" height="140%"><feDropShadow dx="0" dy="18" stdDeviation="18" flood-color="#020617" flood-opacity=".33"/></filter>
  </defs>
  <rect width="1200" height="760" fill="url(#bg)"/>
  <path d="M0 504c180-54 357-54 531 0 258 80 481 55 669-72v328H0z" fill="url(#grass)"/>
  <path d="M102 612c164-56 318-62 462-19 180 54 349 43 508-35" fill="none" stroke="#fff" stroke-width="10" opacity=".45" stroke-linecap="round"/>
  <g filter="url(#shadow)">
    <circle cx="410" cy="202" r="56" fill="#6f432d"/>
    <path d="M348 272c48-38 111-38 158 0l-23 132H371z" fill="#b7ff3c"/>
    <path d="M370 402h48l-49 132h-62zM455 402h49l61 132h-64z" fill="#0d2b4f"/>
    <path d="M350 297 255 354" stroke="#6f432d" stroke-width="28" stroke-linecap="round"/>
    <path d="M505 297 606 350" stroke="#6f432d" stroke-width="28" stroke-linecap="round"/>
  </g>
  <g filter="url(#shadow)">
    <circle cx="760" cy="230" r="54" fill="#9a6643"/>
    <path d="M700 298c46-37 109-37 155 0l-21 132H722z" fill="#ff6a00"/>
    <path d="M720 429h48l-58 126h-63zM808 429h48l42 126h-62z" fill="#081d38"/>
    <path d="M702 322 616 374" stroke="#9a6643" stroke-width="27" stroke-linecap="round"/>
    <path d="M855 323 952 376" stroke="#9a6643" stroke-width="27" stroke-linecap="round"/>
  </g>
  <g transform="translate(610 558)" filter="url(#shadow)">
    <circle r="66" fill="#fff"/>
    <path d="M0-51 30-15 17 40h-34l-13-55z" fill="#061a33"/>
    <path d="M-50-1h37M13-1h37M-29 41 0 16l29 25" fill="none" stroke="#061a33" stroke-width="9" stroke-linecap="round"/>
  </g>
  <path d="M824 130c82 28 140 82 174 162" fill="none" stroke="#ffb703" stroke-width="12" stroke-linecap="round" stroke-dasharray="1 28"/>
  <text x="82" y="116" fill="#fff" font-family="Arial Black, Arial, sans-serif" font-size="58">U12</text>
  <text x="82" y="174" fill="#c7ff64" font-family="Arial, sans-serif" font-size="34" font-weight="800">Ages 9-11</text>
</svg>
