<svg xmlns="http://www.w3.org/2000/svg" viewBox="0 0 1200 760" role="img" aria-labelledby="title desc">
  <title id="title">Ages 16 to 18 soccer program illustration</title>
  <desc id="desc">Older teen soccer players training at high intensity under stadium lights.</desc>
  <defs>
    <linearGradient id="bg" x1="0" x2="1" y1="0" y2="1"><stop stop-color="#020617"/><stop offset="1" stop-color="#0d2b4f"/></linearGradient>
    <linearGradient id="field" x1="0" x2="1"><stop stop-color="#34d399"/><stop offset="1" stop-color="#14532d"/></linearGradient>
    <radialGradient id="light" cx="50%" cy="0" r="70%"><stop stop-color="#ffffff" stop-opacity=".55"/><stop offset="1" stop-color="#ffffff" stop-opacity="0"/></radialGradient>
    <filter id="shadow" x="-20%" y="-20%" width="140%" height="140%"><feDropShadow dx="0" dy="24" stdDeviation="20" flood-color="#000" flood-opacity=".42"/></filter>
  </defs>
  <rect width="1200" height="760" fill="url(#bg)"/>
  <path d="M110 0h220l-120 430H0z" fill="url(#light)" opacity=".38"/>
  <path d="M850 0h250l100 430H730z" fill="url(#light)" opacity=".32"/>
  <path d="M0 500c210-64 438-56 684 24 206 67 378 47 516-64v300H0z" fill="url(#field)"/>
  <path d="M120 612h960M600 505v196" stroke="#fff" stroke-width="8" opacity=".35" stroke-linecap="round"/>
  <g filter="url(#shadow)">
    <circle cx="462" cy="188" r="54" fill="#8a5638"/>
    <path d="M402 254c47-38 108-38 155 0l-24 137H424z" fill="#ff6a00"/>
    <path d="M424 390h47l-67 134h-64zM509 390h48l84 121h-68z" fill="#061a33"/>
    <path d="M404 281 312 342" stroke="#8a5638" stroke-width="27" stroke-linecap="round"/>
    <path d="M557 281 662 328" stroke="#8a5638" stroke-width="27" stroke-linecap="round"/>
  </g>
  <g filter="url(#shadow)">
    <circle cx="760" cy="220" r="55" fill="#6d412c"/>
    <path d="M698 288c48-39 112-39 160 0l-25 140H721z" fill="#b7ff3c"/>
    <path d="M722 427h48l-76 124h-65zM810 427h48l58 124h-65z" fill="#08213f"/>
    <path d="M700 315 606 374" stroke="#6d412c" stroke-width="28" stroke-linecap="round"/>
    <path d="M858 315 960 376" stroke="#6d412c" stroke-width="28" stroke-linecap="round"/>
  </g>
  <g transform="translate(614 560)" filter="url(#shadow)">
    <circle r="68" fill="#fff"/>
    <path d="M0-53 31-16 18 41h-36l-13-57z" fill="#020617"/>
    <path d="M-52-2h39M13-2h39M-30 42 0 16l30 26" fill="none" stroke="#020617" stroke-width="9" stroke-linecap="round"/>
  </g>
  <text x="82" y="116" fill="#fff" font-family="Arial Black, Arial, sans-serif" font-size="58">U17/U18</text>
  <text x="82" y="174" fill="#b7ff3c" font-family="Arial, sans-serif" font-size="34" font-weight="800">Ages 16-18</text>
</svg>
