<svg xmlns="http://www.w3.org/2000/svg" viewBox="0 0 1200 760" role="img" aria-labelledby="title desc">
  <title id="title">Ages 6 to 8 soccer program illustration</title>
  <desc id="desc">A youth player dribbling through cones in an energetic soccer training scene.</desc>
  <defs>
    <linearGradient id="bg" x1="0" x2="1" y1="0" y2="1"><stop stop-color="#07345f"/><stop offset="1" stop-color="#14b8a6"/></linearGradient>
    <linearGradient id="field" x1="0" x2="1"><stop stop-color="#b7ff3c"/><stop offset="1" stop-color="#31b95b"/></linearGradient>
    <filter id="shadow" x="-20%" y="-20%" width="140%" height="140%"><feDropShadow dx="0" dy="20" stdDeviation="18" flood-color="#031426" flood-opacity=".34"/></filter>
  </defs>
  <rect width="1200" height="760" fill="url(#bg)"/>
  <path d="M0 500c222-78 459-74 710 12 170 58 333 45 490-32v280H0z" fill="url(#field)"/>
  <path d="M66 616c147-44 295-45 445-3 224 62 425 42 604-61" fill="none" stroke="#fff" stroke-width="11" stroke-linecap="round" opacity=".5"/>
  <g filter="url(#shadow)">
    <circle cx="504" cy="188" r="62" fill="#8a5638"/>
    <path d="M430 268c58-47 133-47 190 0l-28 154H459z" fill="#ff6a00"/>
    <path d="M452 420h55l-63 136h-70zM553 420h56l71 136h-72z" fill="#061a33"/>
    <path d="M432 301 315 355" stroke="#8a5638" stroke-width="32" stroke-linecap="round"/>
    <path d="M617 300 720 376" stroke="#8a5638" stroke-width="32" stroke-linecap="round"/>
  </g>
  <g transform="translate(720 515) rotate(-12)" filter="url(#shadow)">
    <circle r="70" fill="#fff"/>
    <path d="M0-54 31-16 18 42h-36l-13-58z" fill="#071f3a"/>
    <path d="M-54-2h40M14-2h40M-31 43 0 17l31 26" fill="none" stroke="#071f3a" stroke-width="9" stroke-linecap="round"/>
  </g>
  <g fill="#ffb703">
    <path d="M206 560h62l34 112H172z"/>
    <path d="M342 590h52l25 82H318z"/>
    <path d="M868 572h58l31 100H837z"/>
  </g>
  <text x="82" y="116" fill="#fff" font-family="Arial Black, Arial, sans-serif" font-size="58">U9</text>
  <text x="82" y="174" fill="#d8fff2" font-family="Arial, sans-serif" font-size="34" font-weight="800">Ages 6-8</text>
</svg>
