<svg xmlns="http://www.w3.org/2000/svg" viewBox="0 0 1200 760" role="img" aria-labelledby="title desc">
  <title id="title">Ages 14 to 15 soccer program illustration</title>
  <desc id="desc">A teen soccer player sprinting with a ball in an advanced training scene.</desc>
  <defs>
    <linearGradient id="bg" x1="0" x2="1" y1="0" y2="1"><stop stop-color="#081d38"/><stop offset="1" stop-color="#ff6a00"/></linearGradient>
    <linearGradient id="field" x1="0" x2="1"><stop stop-color="#8cf53a"/><stop offset="1" stop-color="#1f8f4b"/></linearGradient>
    <filter id="shadow" x="-20%" y="-20%" width="140%" height="140%"><feDropShadow dx="0" dy="22" stdDeviation="20" flood-color="#020617" flood-opacity=".34"/></filter>
  </defs>
  <rect width="1200" height="760" fill="url(#bg)"/>
  <path d="M0 505c191-80 409-76 653 12 219 79 402 55 547-72v315H0z" fill="url(#field)"/>
  <path d="M132 620c198-68 393-71 584-9 131 42 253 38 366-13" fill="none" stroke="#fff" stroke-width="10" stroke-linecap="round" opacity=".4"/>
  <g filter="url(#shadow)">
    <circle cx="550" cy="176" r="56" fill="#7b4b31"/>
    <path d="M486 244c51-40 118-40 169 0l-29 152H508z" fill="#0d2b4f"/>
    <path d="M509 394h50l-88 135h-68zM599 394h51l101 119h-72z" fill="#fff"/>
    <path d="M488 276 374 345" stroke="#7b4b31" stroke-width="29" stroke-linecap="round"/>
    <path d="M654 275 764 324" stroke="#7b4b31" stroke-width="29" stroke-linecap="round"/>
  </g>
  <g transform="translate(792 508) rotate(10)" filter="url(#shadow)">
    <circle r="67" fill="#fff"/>
    <path d="M0-52 31-15 18 41h-36l-13-56z" fill="#081d38"/>
    <path d="M-51-2h38M13-2h38M-30 42 0 16l30 26" fill="none" stroke="#081d38" stroke-width="9" stroke-linecap="round"/>
  </g>
  <path d="M275 325h176M235 392h146M188 458h201" stroke="#fff" stroke-width="12" stroke-linecap="round" opacity=".45"/>
  <text x="82" y="116" fill="#fff" font-family="Arial Black, Arial, sans-serif" font-size="58">U15/U16</text>
  <text x="82" y="174" fill="#fff2d7" font-family="Arial, sans-serif" font-size="34" font-weight="800">Ages 14-15</text>
</svg>
